<svg width="287" height="58" viewBox="0 0 287 58" fill="none" xmlns="http://www.w3.org/2000/svg">
<path d="M2.928 48V9.12H8.448L17.088 29.376V9.12H23.616V48H18.336L9.696 26.496V48H2.928ZM40.3541 48.528C37.5061 48.528 35.2501 48.016 33.5861 46.992C31.9221 45.968 30.7221 44.512 29.9861 42.624C29.2821 40.704 28.9301 38.416 28.9301 35.76V21.264C28.9301 18.608 29.2821 16.336 29.9861 14.448C30.7221 12.56 31.9221 11.12 33.5861 10.128C35.2501 9.136 37.5061 8.64 40.3541 8.64C43.2341 8.64 45.5061 9.152 47.1701 10.176C48.8661 11.168 50.0661 12.608 50.7701 14.496C51.5061 16.352 51.8741 18.608 51.8741 21.264V35.76C51.8741 38.416 51.5061 40.704 50.7701 42.624C50.0661 44.512 48.8661 45.968 47.1701 46.992C45.5061 48.016 43.2341 48.528 40.3541 48.528ZM40.3541 42.816C41.3781 42.816 42.1301 42.592 42.6101 42.144C43.0901 41.664 43.4101 41.04 43.5701 40.272C43.7301 39.472 43.8101 38.624 43.8101 37.728V19.344C43.8101 18.448 43.7301 17.616 43.5701 16.848C43.4101 16.08 43.0901 15.472 42.6101 15.024C42.1301 14.544 41.3781 14.304 40.3541 14.304C39.3941 14.304 38.6741 14.544 38.1941 15.024C37.7141 15.472 37.3941 16.08 37.2341 16.848C37.0741 17.616 36.9941 18.448 36.9941 19.344V37.728C36.9941 38.624 37.0581 39.472 37.1861 40.272C37.3461 41.04 37.6661 41.664 38.1461 42.144C38.6261 42.592 39.3621 42.816 40.3541 42.816ZM57.1624 48V9.12H67.2424C69.8664 9.12 72.1064 9.424 73.9624 10.032C75.8504 10.608 77.2904 11.648 78.2824 13.152C79.3064 14.656 79.8184 16.736 79.8184 19.392C79.8184 20.992 79.6744 22.416 79.3864 23.664C79.1304 24.88 78.6504 25.952 77.9464 26.88C77.2744 27.776 76.3144 28.496 75.0664 29.04L80.4424 48H72.3304L67.8664 30.384H65.0824V48H57.1624ZM65.0824 25.68H67.3864C68.6664 25.68 69.6744 25.472 70.4104 25.056C71.1464 24.64 71.6584 24.016 71.9464 23.184C72.2664 22.32 72.4264 21.264 72.4264 20.016C72.4264 18.224 72.0904 16.864 71.4184 15.936C70.7784 14.976 69.5624 14.496 67.7704 14.496H65.0824V25.68ZM85.1468 48V9.12H97.4828C99.8188 9.12 101.723 9.568 103.195 10.464C104.667 11.328 105.755 12.592 106.459 14.256C107.195 15.92 107.563 17.936 107.563 20.304C107.563 23.088 107.083 25.264 106.123 26.832C105.195 28.4 103.915 29.52 102.283 30.192C100.651 30.832 98.7788 31.152 96.6668 31.152H93.0668V48H85.1468ZM93.0668 25.584H95.8508C97.0028 25.584 97.8828 25.408 98.4908 25.056C99.1308 24.672 99.5628 24.08 99.7868 23.28C100.011 22.48 100.123 21.456 100.123 20.208C100.123 19.024 100.027 18.032 99.8348 17.232C99.6748 16.432 99.2908 15.808 98.6828 15.36C98.0748 14.912 97.1148 14.688 95.8028 14.688H93.0668V25.584ZM107.555 48L115.091 9.12H123.875L131.363 48H124.019L122.627 39.456H116.483L114.995 48H107.555ZM117.203 34.608H121.859L119.507 18.912L117.203 34.608ZM135.303 48V9.12H145.383C148.007 9.12 150.247 9.424 152.103 10.032C153.991 10.608 155.431 11.648 156.423 13.152C157.447 14.656 157.959 16.736 157.959 19.392C157.959 20.992 157.815 22.416 157.527 23.664C157.271 24.88 156.791 25.952 156.087 26.88C155.415 27.776 154.455 28.496 153.207 29.04L158.583 48H150.471L146.007 30.384H143.223V48H135.303ZM143.223 25.68H145.527C146.807 25.68 147.815 25.472 148.551 25.056C149.287 24.64 149.799 24.016 150.087 23.184C150.407 22.32 150.567 21.264 150.567 20.016C150.567 18.224 150.231 16.864 149.559 15.936C148.919 14.976 147.703 14.496 145.911 14.496H143.223V25.68ZM166.654 48V15.024H160.654V9.12H180.526V15.024H174.622V48H166.654ZM194.133 48.528C191.733 48.528 189.733 48.096 188.133 47.232C186.533 46.336 185.317 45.008 184.485 43.248C183.685 41.456 183.221 39.184 183.093 36.432L189.909 35.28C189.973 36.88 190.133 38.224 190.389 39.312C190.677 40.368 191.093 41.168 191.637 41.712C192.213 42.224 192.917 42.48 193.749 42.48C194.773 42.48 195.461 42.16 195.813 41.52C196.197 40.88 196.389 40.144 196.389 39.312C196.389 37.68 195.989 36.32 195.189 35.232C194.421 34.112 193.397 32.992 192.117 31.872L188.085 28.368C186.645 27.152 185.461 25.776 184.533 24.24C183.637 22.704 183.189 20.816 183.189 18.576C183.189 15.376 184.117 12.928 185.973 11.232C187.861 9.504 190.437 8.64 193.701 8.64C195.653 8.64 197.253 8.96 198.501 9.6C199.749 10.24 200.709 11.104 201.381 12.192C202.085 13.248 202.565 14.416 202.821 15.696C203.109 16.944 203.285 18.192 203.349 19.44L196.581 20.448C196.517 19.264 196.405 18.224 196.245 17.328C196.117 16.432 195.829 15.728 195.381 15.216C194.965 14.704 194.325 14.448 193.461 14.448C192.533 14.448 191.845 14.8 191.397 15.504C190.949 16.176 190.725 16.928 190.725 17.76C190.725 19.136 191.029 20.272 191.637 21.168C192.277 22.032 193.141 22.944 194.229 23.904L198.165 27.36C199.797 28.768 201.189 30.384 202.341 32.208C203.525 34 204.117 36.224 204.117 38.88C204.117 40.704 203.701 42.352 202.869 43.824C202.037 45.296 200.869 46.448 199.365 47.28C197.893 48.112 196.149 48.528 194.133 48.528Z" fill="#232F4D"/>
<path d="M234.192 48.432C231.952 48.432 230.08 47.952 228.576 46.992C227.104 46.032 225.984 44.704 225.216 43.008C224.448 41.312 224 39.344 223.872 37.104L228.672 35.808C228.768 37.184 228.976 38.512 229.296 39.792C229.648 41.072 230.208 42.128 230.976 42.96C231.744 43.76 232.816 44.16 234.192 44.16C235.6 44.16 236.656 43.776 237.36 43.008C238.096 42.208 238.464 41.072 238.464 39.6C238.464 37.84 238.064 36.432 237.264 35.376C236.464 34.288 235.456 33.2 234.24 32.112L227.712 26.352C226.432 25.232 225.488 24.016 224.88 22.704C224.272 21.36 223.968 19.712 223.968 17.76C223.968 14.912 224.784 12.704 226.416 11.136C228.048 9.568 230.272 8.784 233.088 8.784C234.624 8.784 235.968 8.992 237.12 9.408C238.304 9.792 239.28 10.4 240.048 11.232C240.848 12.064 241.472 13.12 241.92 14.4C242.4 15.648 242.72 17.12 242.88 18.816L238.272 20.064C238.176 18.784 237.984 17.616 237.696 16.56C237.408 15.472 236.896 14.608 236.16 13.968C235.456 13.296 234.432 12.96 233.088 12.96C231.744 12.96 230.688 13.328 229.92 14.064C229.184 14.768 228.816 15.824 228.816 17.232C228.816 18.416 229.008 19.392 229.392 20.16C229.808 20.928 230.464 21.712 231.36 22.512L237.936 28.272C239.408 29.552 240.704 31.088 241.824 32.88C242.944 34.64 243.504 36.736 243.504 39.168C243.504 41.088 243.104 42.752 242.304 44.16C241.504 45.536 240.4 46.592 238.992 47.328C237.616 48.064 236.016 48.432 234.192 48.432ZM247.04 48V42.288H252.176V48H247.04ZM254.646 48L262.902 9.12H268.134L276.438 48H271.302L269.526 38.208H261.606L259.734 48H254.646ZM262.326 34.32H268.806L265.542 16.8L262.326 34.32ZM279.711 48V42.288H284.847V48H279.711Z" fill="#232F4D"/>
<line x1="3.51712" y1="54" x2="283.51" y2="55.931" stroke="#232F4D" stroke-width="4"/>
</svg>
